<mxfile host="app.diagrams.net" modified="2024-07-05T04:20:51.869Z" agent="Mozilla/5.0 (Windows NT 10.0; Win64; x64) AppleWebKit/537.36 (KHTML, like Gecko) Chrome/126.0.0.0 Safari/537.36 Edg/126.0.0.0" version="24.6.4" etag="axyCM-LRlr0CbazNJNq3" type="github">
  <diagram name="Page-1" id="CQh4BRswMI1ZSogeNsyI">
    <mxGraphModel>
      <root>
        <mxCell id="0" />
        <mxCell id="1" parent="0" />
      </root>
    </mxGraphModel>
  </diagram>
</mxfile>
